<svg xmlns="http://www.w3.org/2000/svg"><defs><style>symbol{fill:none;stroke:currentColor;stroke-width:1.8;stroke-linecap:round;stroke-linejoin:round}</style></defs>
<symbol id="arrow" viewBox="0 0 24 24"><path d="M5 12h14m-6-6 6 6-6 6"/></symbol><symbol id="search" viewBox="0 0 24 24"><circle cx="11" cy="11" r="7"/><path d="m20 20-4-4"/></symbol><symbol id="menu" viewBox="0 0 24 24"><path d="M4 6h16M4 12h16M4 18h16"/></symbol><symbol id="close" viewBox="0 0 24 24"><path d="m6 6 12 12M18 6 6 18"/></symbol><symbol id="chevron" viewBox="0 0 24 24"><path d="m6 9 6 6 6-6"/></symbol><symbol id="spark" viewBox="0 0 24 24"><path d="m12 2 2 7 7 2-7 2-2 7-2-7-7-2 7-2 2-7Z"/></symbol><symbol id="shield" viewBox="0 0 24 24"><path d="M12 3 20 6v6c0 5-3.5 8-8 9-4.5-1-8-4-8-9V6l8-3Z"/><path d="m8.5 12 2.3 2.3 4.8-5"/></symbol><symbol id="source" viewBox="0 0 24 24"><path d="M6 2h9l4 4v16H6zM14 2v5h5M9 12h7M9 16h7"/></symbol><symbol id="calendar" viewBox="0 0 24 24"><rect x="3" y="5" width="18" height="16" rx="2"/><path d="M8 3v4M16 3v4M3 10h18"/></symbol><symbol id="eye" viewBox="0 0 24 24"><path d="M2 12s4-7 10-7 10 7 10 7-4 7-10 7S2 12 2 12Z"/><circle cx="12" cy="12" r="3"/></symbol><symbol id="signal" viewBox="0 0 24 24"><path d="M3 18h18M5 15l4-4 4 3 6-8M15 6h4v4"/></symbol><symbol id="building" viewBox="0 0 24 24"><path d="M4 21V7l8-4v18M12 9h8v12M7 8h2M7 12h2M7 16h2M15 12h2M15 16h2M2 21h20"/></symbol><symbol id="matter" viewBox="0 0 24 24"><path d="M4 5h6l2 2h8v12H4V5ZM8 11h8M8 15h5"/></symbol><symbol id="decision" viewBox="0 0 24 24"><path d="M6 3h12v18H6zM9 8h6M9 12h6M9 16h3m3 0 1.5 1.5L20 14"/></symbol><symbol id="book" viewBox="0 0 24 24"><path d="M4 5.5A3.5 3.5 0 0 1 7.5 2H12v18H7.5A3.5 3.5 0 0 0 4 23V5.5Zm16 0A3.5 3.5 0 0 0 16.5 2H12v18h4.5A3.5 3.5 0 0 1 20 23V5.5Z"/></symbol><symbol id="calculator" viewBox="0 0 24 24"><rect x="5" y="2" width="14" height="20" rx="2"/><path d="M8 5h8v4H8zM8 13h.01M12 13h.01M16 13h.01M8 17h.01M12 17h.01M16 17h.01"/></symbol><symbol id="settings" viewBox="0 0 24 24"><circle cx="12" cy="12" r="3"/><path d="M12 2v3m0 14v3M2 12h3m14 0h3M4.9 4.9 7 7m10 10 2.1 2.1M19.1 4.9 17 7M7 17l-2.1 2.1"/></symbol><symbol id="chart" viewBox="0 0 24 24"><path d="M4 20V10M10 20V4M16 20v-7M22 20V7M2 20h21"/></symbol><symbol id="scale" viewBox="0 0 24 24"><path d="M12 3v18M5 6h14M7 6 3 13h8L7 6Zm10 0-4 7h8l-4-7ZM8 21h8"/></symbol><symbol id="database" viewBox="0 0 24 24"><ellipse cx="12" cy="5" rx="8" ry="3"/><path d="M4 5v6c0 1.7 3.6 3 8 3s8-1.3 8-3V5M4 11v6c0 1.7 3.6 3 8 3s8-1.3 8-3v-6"/></symbol><symbol id="code" viewBox="0 0 24 24"><path d="m8 5-5 7 5 7m8-14 5 7-5 7M14 3l-4 18"/></symbol><symbol id="lock" viewBox="0 0 24 24"><rect x="4" y="10" width="16" height="11" rx="2"/><path d="M8 10V7a4 4 0 0 1 8 0v3"/></symbol><symbol id="check" viewBox="0 0 24 24"><path d="m5 12 4 4L19 6"/></symbol><symbol id="download" viewBox="0 0 24 24"><path d="M12 3v12m0 0 5-5m-5 5-5-5M4 21h16"/></symbol><symbol id="activity" viewBox="0 0 24 24"><path d="M3 12h4l2-7 4 14 2-7h6"/></symbol><symbol id="users" viewBox="0 0 24 24"><circle cx="9" cy="8" r="3"/><path d="M3 19a6 6 0 0 1 12 0M16 5a3 3 0 0 1 0 6M17 14a5 5 0 0 1 4 5"/></symbol><symbol id="pin" viewBox="0 0 24 24"><path d="M12 21s7-6 7-12a7 7 0 1 0-14 0c0 6 7 12 7 12Z"/><circle cx="12" cy="9" r="2"/></symbol><symbol id="layers" viewBox="0 0 24 24"><path d="m12 3 9 5-9 5-9-5 9-5Zm-9 9 9 5 9-5M3 16l9 5 9-5"/></symbol></svg>